<svg xmlns="http://www.w3.org/2000/svg" viewBox="0 0 512 512">
  <defs>
    <linearGradient id="g" x1="0" x2="1" y1="0" y2="1">
      <stop offset="0" stop-color="#6D28D9"/>
      <stop offset="1" stop-color="#0EA5E9"/>
    </linearGradient>
    <radialGradient id="r" cx="30%" cy="20%" r="70%">
      <stop offset="0" stop-color="#ffffff" stop-opacity="0.25"/>
      <stop offset="1" stop-color="#ffffff" stop-opacity="0"/>
    </radialGradient>
  </defs>
  <rect width="512" height="512" rx="120" fill="url(#g)"/>
  <rect width="512" height="512" rx="120" fill="url(#r)"/>
  <circle cx="156" cy="182" r="10" fill="#ffffff" opacity="0.6"/>
  <circle cx="356" cy="140" r="6" fill="#ffffff" opacity="0.35"/>
  <circle cx="396" cy="290" r="8" fill="#ffffff" opacity="0.3"/>
  <g fill="#ffffff">
    <path d="M170 200c0-52 32-84 86-84h38c54 0 88 34 88 86v64c0 62-36 102-104 116-8 2-12-4-12-10v-28c0-6 4-10 10-12 40-12 60-34 60-68v-60c0-30-18-48-50-48h-28c-30 0-48 18-48 48v104c0 44-24 72-68 84-6 2-12-4-12-10v-28c0-6 4-10 10-12 22-8 34-22 34-44z"/>
    <path d="M144 332c0-8 6-14 14-14h64c8 0 14 6 14 14v22c0 8-6 14-14 14h-64c-8 0-14-6-14-14z" opacity="0.85"/>
  </g>
</svg>
